<svg xmlns="http://www.w3.org/2000/svg" width="256" height="256" viewBox="0 0 256 256" fill="none">
  <circle cx="128" cy="128" r="120" fill="#1A73E8"/>
  <path fill="#FFFFFF" d="M92.3 193.5a10 10 0 0 1-10-10v-41H70a10 10 0 0 1-10-10V89.3a10 10 0 0 1 10-10h20V66a10 10 0 0 1 10-10h30V42.4c0-2 .5-3.9 1.5-5.6l13-21.2a10 10 0 0 1 13.7-3.4l13.8 8.2a10 10 0 0 1 3.4 13.7L166 50.5v44.8a10 10 0 0 1-4.2 8.1l-17.8 12.8v67.3a10 10 0 0 1-10 10h-10a10 10 0 0 1-10-10v-32h-8v32a10 10 0 0 1-10 10h-9.7Zm86.9-140.2 1.9-3.2-1.9 3.2ZM186 214a10 10 0 0 1-8-4l-12-16a10 10 0 1 1 16-12l12 16a10 10 0 0 1-8 16Z"/>
</svg>
